PathFileType	4	(X/Y/Z)	0_1_34_p1_0-240.trc
DataRate	CameraRate	NumFrames	NumMarkers	Units	OrigDataRate	OrigDataStartFrame	OrigNumFrames
60	60	6	27	m	60	0	240
Frame#	Time	RHip			RKnee			RAnkle			RBigToe			RSmallToe			RHeel			LHip			LKnee			LAnkle			LBigToe			LSmallToe			LHeel			Neck			Head			Nose			RShoulder			RElbow			RWrist			RThumb			RIndex			RPinky			LShoulder			LElbow			LWrist			LThumb			LIndex			LPinky		
		X1	Y1	Z1	X2	Y2	Z2	X3	Y3	Z3	X4	Y4	Z4	X5	Y5	Z5	X6	Y6	Z6	X7	Y7	Z7	X8	Y8	Z8	X9	Y9	Z9	X10	Y10	Z10	X11	Y11	Z11	X12	Y12	Z12	X13	Y13	Z13	X14	Y14	Z14	X15	Y15	Z15	X16	Y16	Z16	X17	Y17	Z17	X18	Y18	Z18	X19	Y19	Z19	X20	Y20	Z20	X21	Y21	Z21	X22	Y22	Z22	X23	Y23	Z23	X24	Y24	Z24	X25	Y25	Z25	X26	Y26	Z26	X27	Y27	Z27
1	0.016666666666666666	0.12276317803554831	0.19301340123657365	0.028980796089343227	0.13757147217451055	0.17534178650117693	-0.3691354596454069	0.16264716743313606	0.20256255915681728	-0.7510394544154377	0.1857020549052363	0.06767200812409899	-0.7911717960362168	0.10451468818997443	0.07328133223910081	-0.7811685658847031	0.16967752101525235	0.24529879895558496	-0.8078933279796723	0.34099013123466115	0.17870608151301703	0.023984607874285937	0.34645537954931255	0.1710489535356458	-0.35682189481380555	0.3406279103822665	0.27687604275939004	-0.7819279984587995	0.31381810919279784	0.07341613051370623	-0.7882825516802969	0.36721838670896867	0.110586532837702	-0.7994781925802954	0.32585744036869213	0.2982664897745202	-0.851387094078299	0.2290843600043917	0.26278290300287527	0.5432646589619876	0.2167796565032442	0.2551383756582319	0.7936088613912132	0.20527647917997885	0.15872693691985995	0.6747127083797291	0.08374774776716619	0.2995518927828839	0.46191427891724657	0.025433221807424737	0.2163407856801425	0.21774688304713002	0.16791984258471973	0.07353638087005925	0.08946612406992897	0.2773168877488385	0.060233506428659156	0.03043782876691957	0.2771208663053191	0.061241184957296385	0.014239516541671193	0.2471187313081995	0.09037531153161794	-0.015369190481978148	0.38799457966905687	0.28035838782081696	0.47697201407045176	0.43376858554123304	0.17197145976638506	0.22996181401385898	0.2863020956231369	0.07106445756702631	0.08754901165745253	0.23063746685021266	0.07832857956391635	0.028559768981316215	0.2268667334405649	0.09067844743490291	-0.006695303884778499	0.24676462089247492	0.06921495763252773	-0.0018496960495725005
2	0.03333333333333333	0.11978370008591047	0.2041069089997102	0.024295207572938772	0.1385522909375279	0.17287460010873074	-0.371562837861277	0.16238289951781137	0.20270822098552754	-0.7509638269135968	0.186293945348999	0.06729530972968581	-0.7907473143928596	0.1078059861496644	0.07163691272454907	-0.7845163822856561	0.16573464955929754	0.25886786426856784	-0.8168089928389198	0.3409610330929975	0.17867004547799184	0.023821143536683822	0.3486521748159734	0.15900122802984412	-0.35030249618463405	0.3384068004912411	0.26583348729332007	-0.7695288324069599	0.3126236520340284	0.06361746454105915	-0.780973345198377	0.3671517651179862	0.11071012799223527	-0.7995051860712539	0.3269117022933308	0.2960079786096074	-0.8451616838731097	0.22914817686893407	0.26356088451107507	0.5466727100507998	0.2166722168893235	0.2540046756476579	0.7908064969610331	0.20526576077418773	0.1588245152636525	0.6746756711703722	0.08391666372237434	0.3005452301436855	0.4655460494254535	0.025026756591126624	0.21727868642642392	0.220997863540783	0.16789630291827107	0.07365611543339422	0.08943370585834257	0.27754644322226346	0.060397062729363314	0.029905767371409587	0.2772175764532649	0.061247342066169164	0.013909343272445304	0.24674834996323644	0.09114286819251631	-0.012376172073805383	0.3879783455530403	0.2803188655504212	0.4769858403470161	0.4336253307729022	0.17207001762043725	0.23721408522901272	0.2866561660961007	0.07064439075002323	0.09172316708220522	0.22788770151496673	0.08966727215239717	0.02374505059009372	0.22749184685790658	0.09068612260816318	-0.010539073611000756	0.24699128036216292	0.06961484783017116	-0.0019249093042745342
3	0.05	0.12337652003485712	0.192754868168861	0.02864052929413286	0.13881091896223013	0.17483145073541698	-0.3686207023458794	0.16241017530109134	0.20272819795955058	-0.7509144616431872	0.1862208307792738	0.06727512240029274	-0.7908605791861597	0.10859076016022819	0.07100258526340826	-0.7795918990622269	0.16687272930791672	0.25768584754472845	-0.821101670652897	0.34089451454888003	0.18024669011543132	0.02323764279004528	0.34892014567007784	0.16014561334904193	-0.3468754784320775	0.34314122205840764	0.2627758842159892	-0.7724717351745763	0.30976434433224126	0.07489909578385193	-0.7891625521999179	0.36176306792608925	0.09662109536637796	-0.7932894969479187	0.3273501716793949	0.29514635353778	-0.844234137047435	0.22913545712578995	0.263535216465037	0.546694837275826	0.21677411434764632	0.25522275636278313	0.7935499238894838	0.2053054983529701	0.15876125854693743	0.6747142440199972	0.08391448345863438	0.30048787749108813	0.4655849736704053	0.025008614661526426	0.21734952454927928	0.2209976179134146	0.16793174090982307	0.07369281547060014	0.08940337015562826	0.2776729719538093	0.06045275206098382	0.029835698797137197	0.27728044950816483	0.06130030673863775	0.013796726753528032	0.24419282230184414	0.1032970017395484	-0.02183171668724576	0.3879702644859908	0.28027251849746715	0.47699876996190943	0.4336073086898081	0.1720855060011993	0.2372678341856496	0.28673113299586334	0.07073515727063837	0.09179374524902871	0.23083666457331675	0.07874664373054632	0.028453680349126657	0.2324435983289174	0.10262227170095677	-0.016000692000011335	0.25242930126666197	0.0813722363861434	-0.0031669509720228073
4	0.06666666666666667	0.1233858711310456	0.19246874649246756	0.028559317025091353	0.13490028812486038	0.17605878536109176	-0.3694130754003818	0.16266721972278753	0.20424148743514123	-0.7474635049630411	0.186097694372454	0.06775028517971042	-0.7912249119153301	0.10847080089498345	0.07123574825747703	-0.7797624133445965	0.16926779985389964	0.24504371774122694	-0.8069803577532619	0.34084679019673475	0.18014800456357452	0.023026896075869545	0.3489610225301075	0.16013195183445514	-0.34714768404901364	0.3430525415649603	0.26293072143839435	-0.7726574446860142	0.30998741713530464	0.07537297558367206	-0.7997409762456809	0.36186218308936696	0.09690045559403943	-0.7936469152598605	0.3271191193551329	0.29500055885966087	-0.8437491561020994	0.22912214293890565	0.26358581219755384	0.5466791926651323	0.21666237290232923	0.25413807145292516	0.7907880110633706	0.2053028227020221	0.15882999242588675	0.6747297085457176	0.08393010564598931	0.3005959978029751	0.4656435301986511	0.025262561082244027	0.21633393724310357	0.21778231980052004	0.16794432119539987	0.07367575389587686	0.08936056240746684	0.27770811151801733	0.06079774091876373	0.029676738669760287	0.2773494275236636	0.061403285498533806	0.01356237557576215	0.24455748783967635	0.10291155788466984	-0.025257534160169952	0.3879135435310194	0.2801891603196391	0.4770922950498635	0.43359534724657167	0.17213902756677735	0.23726693538472646	0.28671963640389814	0.07060183274788435	0.09188049896761917	0.23082785296175393	0.07832561218727258	0.028695518073800347	0.2276197909691583	0.0898879999118716	-0.00989218724966745	0.2523890223796719	0.08151207035811678	-0.00310481814794892
5	0.08333333333333333	0.12345579035771163	0.19252818719638015	0.02839207429391237	0.13778321364021776	0.17562495342041207	-0.3745385278126033	0.1625117871109738	0.20427951271144448	-0.7475153687952218	0.18613321708690211	0.06750559177534944	-0.7910578381944284	0.10845100582917909	0.07118044338156913	-0.7797059976872117	0.16562384965747873	0.25843628221875725	-0.8159954565718129	0.34066953906907965	0.17902594431605484	0.019180113218372305	0.34846765481385783	0.16106184882132624	-0.3521498218046997	0.3430717775208272	0.26278414602368005	-0.7725227467711488	0.30628240238470245	0.07712030847082944	-0.8008393733142283	0.3618401247836108	0.09681709791860198	-0.793516708188133	0.32743051345949115	0.2946092639251938	-0.8434988164619776	0.22911416161422096	0.26359239209619034	0.546707147878241	0.21656426221971223	0.2542077030435564	0.7907596396477895	0.2053440266218289	0.15891278802692904	0.6747580223240655	0.08397043253590901	0.300651398999933	0.46565700703712665	0.024982642520283285	0.21737479025720596	0.22104795714254588	0.1679457224079761	0.07349071630523174	0.08934617480791845	0.27755995133165184	0.060682404414521565	0.029782835363097292	0.2776729216628722	0.06089028905637546	0.017529666375784236	0.24417476212677014	0.10327753200563912	-0.021796798128018248	0.3822973419830162	0.26771459882050475	0.4803516936063086	0.43360183044826156	0.17213929974476375	0.23726333218168347	0.2824108904545438	0.07361321845727208	0.09464352534390201	0.23091174329821385	0.07844172982004104	0.02872657594216322	0.22772048235288406	0.08990635162552617	-0.009671274511895995	0.25237685547906047	0.08168307905867447	-0.0030524494573738255
6	0.1	0.1274204107980934	0.19114826927954076	0.028804161466095695	0.13824849901538142	0.17377956275301923	-0.38190106554417463	0.16252289716690263	0.2043690424277034	-0.7476062313523127	0.18605675034001898	0.06792835197101542	-0.7912365006167701	0.10845328174552653	0.07122851142772167	-0.7797201428752074	0.16653018534810307	0.2574742140529579	-0.8205915447404591	0.34065967147149423	0.17908612018299772	0.019075649678242074	0.3485084566871977	0.16114516333372983	-0.35247544293633293	0.3431486959343951	0.2629094136466636	-0.7726484224413307	0.31019390654306783	0.07558620681678259	-0.7998923144991434	0.36805183539322467	0.10999509440274322	-0.8035821244204605	0.32751215800296524	0.29463776699687505	-0.8435825970729731	0.23386727935315227	0.2757613726936942	0.5438459111801478	0.21654141661398693	0.25421590772266933	0.7907562308970333	0.2053776896026101	0.15880446208565738	0.6747907356888359	0.08395829372073803	0.30070216625031515	0.4656286691310926	0.02498212847158598	0.21737840729254002	0.2210635313808389	0.1679289253700129	0.07346893883484656	0.0893141019227676	0.2775077409056892	0.060716457827260636	0.02991254249627968	0.2692476053122673	0.06378971821741265	0.0068271619249013335	0.24864318356662582	0.10152157727810392	-0.025001292208988692	0.387944212238972	0.28016886601951985	0.47709301778852253	0.4336093045550897	0.17220853403735845	0.23722807570755103	0.2828032130597349	0.07258463982609971	0.09117209679328331	0.23092509192202626	0.07827924322807724	0.028805925960610386	0.22773476837244866	0.08961369355322979	-0.009487875896835698	0.2475096881158413	0.06982913310160731	0.0022553176671296447
